<svg width="36" height="36" viewBox="0 0 36 36" fill="none" xmlns="http://www.w3.org/2000/svg">
<g clip-path="url(#clip0_1025_41523)">
<path d="M24 6H12C8.68629 6 6 8.68629 6 12V24C6 27.3137 8.68629 30 12 30H24C27.3137 30 30 27.3137 30 24V12C30 8.68629 27.3137 6 24 6Z" stroke="white" stroke-width="0.833333" stroke-linecap="round" stroke-linejoin="round"/>
<path d="M18 22.5C20.4853 22.5 22.5 20.4853 22.5 18C22.5 15.5147 20.4853 13.5 18 13.5C15.5147 13.5 13.5 15.5147 13.5 18C13.5 20.4853 15.5147 22.5 18 22.5Z" stroke="white" stroke-width="0.833333" stroke-linecap="round" stroke-linejoin="round"/>
<path d="M24.75 11.25V11.251" stroke="white" stroke-width="0.833333" stroke-linecap="round" stroke-linejoin="round"/>
</g>
<defs>
<clipPath id="clip0_1025_41523">
<rect width="36" height="36" fill="white"/>
</clipPath>
</defs>
</svg>
