<svg width="36" height="36" viewBox="0 0 36 36" fill="none" xmlns="http://www.w3.org/2000/svg">
<g clip-path="url(#clip0_1037_52476)">
<path d="M27 6H9C7.34315 6 6 7.34315 6 9V27C6 28.6569 7.34315 30 9 30H27C28.6569 30 30 28.6569 30 27V9C30 7.34315 28.6569 6 27 6Z" stroke="white" stroke-width="0.833333" stroke-linecap="round" stroke-linejoin="round"/>
<path d="M12 16.5V24" stroke="white" stroke-width="0.833333" stroke-linecap="round" stroke-linejoin="round"/>
<path d="M12 12V12.015" stroke="white" stroke-width="0.833333" stroke-linecap="round" stroke-linejoin="round"/>
<path d="M18 24V16.5" stroke="white" stroke-width="0.833333" stroke-linecap="round" stroke-linejoin="round"/>
<path d="M24 24V19.5C24 18.7044 23.6839 17.9413 23.1213 17.3787C22.5587 16.8161 21.7956 16.5 21 16.5C20.2044 16.5 19.4413 16.8161 18.8787 17.3787C18.3161 17.9413 18 18.7044 18 19.5" stroke="white" stroke-width="0.833333" stroke-linecap="round" stroke-linejoin="round"/>
</g>
<defs>
<clipPath id="clip0_1037_52476">
<rect width="36" height="36" fill="white"/>
</clipPath>
</defs>
</svg>
