   <svg xmlns="http://www.w3.org/2000/svg">
      <symbol viewBox="0 0 28 28" id="homepage">
         <path clip-rule="evenodd" d="M16.3382 1.94393L25.9705 9.82424L26.0201 9.8788C26.1701 10.0437 26.3998 10.3064 26.5943 10.6198C26.7798 10.9189 27 11.3686 27 11.8956V24.9976C27 26.1013 26.1068 27 25 27H18.7601C17.9317 27 17.2601 26.3284 17.2601 25.5V20.7939C17.2601 18.9948 15.8058 17.5405 14.0168 17.5405C12.2279 17.5405 10.7735 18.9948 10.7735 20.7939V25.5C10.7735 26.3284 10.102 27 9.27354 27H3C1.89318 27 1 26.1013 1 24.9976V11.7425C1 11.0901 1.36299 10.564 1.56986 10.3028C1.69049 10.1505 1.80873 10.0264 1.89631 9.94036C1.9407 9.89677 1.97877 9.86147 2.0074 9.83565C2.02175 9.8227 2.03384 9.81204 2.0433 9.80382L2.05551 9.79329L2.06007 9.7894L2.06278 9.7871C2.06278 9.7871 2.06356 9.78646 2.7075 10.5515L2.06356 9.78646L2.07352 9.77807L11.6288 1.94617C12.9452 0.685478 15.0206 0.684487 16.3382 1.94393ZM3.35246 11.3159L3.3468 11.3209C3.33673 11.33 3.31953 11.3459 3.29759 11.3674C3.25251 11.4117 3.19388 11.4736 3.13764 11.5446C3.07966 11.6178 3.038 11.6834 3.01374 11.7344C3.00661 11.7494 3.00238 11.7602 3 11.767V24.9976L3.00006 24.9992L3.0007 25H8.77354V20.7939C8.77354 17.8948 11.1188 15.5405 14.0168 15.5405C16.9149 15.5405 19.2601 17.8948 19.2601 20.7939V25H24.9993L24.9999 24.9992L25 24.9976V11.8956C25 11.8989 25.0008 11.8992 25 11.8956C24.9966 11.8812 24.9788 11.8095 24.8948 11.6742C24.8108 11.5389 24.7005 11.4037 24.588 11.2772L15.004 3.43645L14.9714 3.40439C14.4228 2.86484 13.5451 2.86525 12.997 3.40534L12.9644 3.43744L3.35246 11.3159Z"/>
      </symbol>
 
      <symbol viewBox="0 0 24 24" id="gallery">
         <path d="M22,3a1,1,0,0,0-1-1H3A1,1,0,0,0,2,3V21a1,1,0,0,0,1,1H21a1,1,0,0,0,1-1ZM20,20H4V17.481L7.926,14.34l2.367,2.367a1,1,0,0,0,1.414,0l4.367-4.367L20,15.481Zm0-7.081-3.375-2.7a1,1,0,0,0-1.332.074L11,14.586,8.707,12.293a1,1,0,0,0-1.332-.074L4,14.919V4H20ZM6,8a2,2,0,1,1,2,2A2,2,0,0,1,6,8Z"/>
      </symbol>
 
      <symbol viewBox="0 0 24 24" id="down">
         <path d="M17,8H7a1,1,0,0,0-.768,1.641l5,6a1,1,0,0,0,1.536,0l5-6A1,1,0,0,0,17,8Zm-5,5.438L9.135,10h5.73Z"/>
      </symbol>

      <symbol viewBox="0 0 24 24" id="left">
         <path d="M15.424,6.1a1.006,1.006,0,0,0-1.065.136l-6,5a1,1,0,0,0,0,1.538l6,5A1.007,1.007,0,0,0,15,18a.989.989,0,0,0,.424-.095A1,1,0,0,0,16,17V7A1,1,0,0,0,15.424,6.1ZM14,14.865,10.562,12,14,9.135Z"/>
      </symbol>
 
      <symbol viewBox="0 0 24 24" id="fb">
         <path d="M22,3V21a1,1,0,0,1-1,1H15.8V14.255h2.6l.39-3.018H15.8V9.309c0-.874.242-1.469,1.5-1.469h1.6V5.14a21.311,21.311,0,0,0-2.329-.119A3.636,3.636,0,0,0,12.683,9.01v2.227H10.076v3.018h2.607V22H3a1,1,0,0,1-1-1V3A1,1,0,0,1,3,2H21A1,1,0,0,1,22,3Z"/>
      </symbol>
   
      <symbol viewBox="0 0 24 24" id="instagram">
         <path d="M14.667,12A2.667,2.667,0,1,1,12,9.333,2.667,2.667,0,0,1,14.667,12Zm3.846-3.233c.039.844.047,1.1.047,3.233s-.008,2.389-.047,3.233a4.46,4.46,0,0,1-.275,1.486,2.657,2.657,0,0,1-1.519,1.518,4.454,4.454,0,0,1-1.486.275c-.843.039-1.1.046-3.233.046s-2.389-.007-3.232-.046a4.46,4.46,0,0,1-1.486-.275,2.652,2.652,0,0,1-1.518-1.518,4.407,4.407,0,0,1-.275-1.486c-.039-.843-.047-1.1-.047-3.233s.008-2.389.047-3.233a4.439,4.439,0,0,1,.275-1.486A2.644,2.644,0,0,1,7.282,5.763a4.407,4.407,0,0,1,1.486-.275c.843-.039,1.1-.047,3.232-.047s2.389.009,3.233.047a4.433,4.433,0,0,1,1.486.275,2.649,2.649,0,0,1,1.519,1.518A4.407,4.407,0,0,1,18.513,8.767ZM16.108,12A4.108,4.108,0,1,0,12,16.108,4.108,4.108,0,0,0,16.108,12Zm1.123-4.27a.96.96,0,0,0-.96-.96h0a.96.96,0,1,0,.96.96ZM22,3V21a1,1,0,0,1-1,1H3a1,1,0,0,1-1-1V3A1,1,0,0,1,3,2H21A1,1,0,0,1,22,3Zm-2,9c0-2.173-.009-2.445-.048-3.3a5.891,5.891,0,0,0-.371-1.942,4.094,4.094,0,0,0-2.34-2.34A5.873,5.873,0,0,0,15.3,4.048C14.446,4.01,14.174,4,12,4s-2.446.009-3.3.048A5.862,5.862,0,0,0,6.76,4.42,4.094,4.094,0,0,0,4.42,6.76,5.862,5.862,0,0,0,4.048,8.7C4.009,9.555,4,9.827,4,12s.009,2.445.048,3.3A5.862,5.862,0,0,0,4.42,17.24a4.094,4.094,0,0,0,2.34,2.34,5.868,5.868,0,0,0,1.942.372C9.555,19.99,9.828,20,12,20s2.446-.009,3.3-.048a5.873,5.873,0,0,0,1.942-.372,4.094,4.094,0,0,0,2.34-2.34,5.865,5.865,0,0,0,.371-1.942C19.991,14.445,20,14.172,20,12Z"/>
      </symbol>

      <symbol viewBox="0 0 24 24" id="tiktok">
         <path d="M21,2H3A1,1,0,0,0,2,3V21a1,1,0,0,0,1,1H21a1,1,0,0,0,1-1V3A1,1,0,0,0,21,2Zm-3.281,8.725h0c-.109.011-.219.016-.328.017A3.571,3.571,0,0,1,14.4,9.129v5.493a4.061,4.061,0,1,1-4.06-4.06c.085,0,.167.008.251.013v2a2.067,2.067,0,1,0-.251,4.119A2.123,2.123,0,0,0,12.5,14.649l.02-9.331h1.914A3.564,3.564,0,0,0,17.719,8.5Z"/>
      </symbol>

      <symbol viewBox="0 0 24 24" id="viber">
         <path d="M12.743 13.455s.356.03.547-.206l.374-.47c.18-.232.614-.38 1.04-.144a11.005 11.005 0 0 1 .928.593c.282.207.86.69.862.69.276.233.34.574.152.934l-.002.008a3.896 3.896 0 0 1-.777.957l-.007.005q-.401.335-.789.381a.522.522 0 0 1-.115.008 1.05 1.05 0 0 1-.335-.052l-.009-.012c-.398-.113-1.062-.394-2.169-1.004a12.917 12.917 0 0 1-1.822-1.204 9.553 9.553 0 0 1-.82-.727l-.027-.027-.028-.028-.028-.027-.027-.028a9.553 9.553 0 0 1-.727-.82A12.93 12.93 0 0 1 7.76 10.46c-.61-1.107-.891-1.77-1.004-2.17l-.012-.008a1.05 1.05 0 0 1-.051-.335.506.506 0 0 1 .007-.115q.048-.387.382-.79l.005-.007a3.888 3.888 0 0 1 .957-.777l.007-.001c.36-.188.702-.124.934.15.002.001.484.58.69.862a11.005 11.005 0 0 1 .593.929c.237.425.089.86-.144 1.04l-.47.373c-.237.192-.206.548-.206.548s.696 2.633 3.295 3.296zm-.878-7.875a.253.253 0 0 0-.256.252.253.253 0 0 0 .252.254c1.353.01 2.454.447 3.356 1.326.894.872 1.351 2.057 1.363 3.611a.253.253 0 0 0 .254.252.253.253 0 0 0 .252-.255c-.013-1.654-.517-2.996-1.516-3.97-.99-.965-2.242-1.46-3.705-1.47Zm.463 1.313a.253.253 0 0 0-.271.234.253.253 0 0 0 .234.271c.966.071 1.682.387 2.205.957.524.573.773 1.27.754 2.141a.253.253 0 0 0 .248.258.253.253 0 0 0 .258-.246c.021-.978-.276-1.827-.887-2.494-.617-.674-1.48-1.044-2.54-1.121Zm.379 1.357a.253.253 0 0 0-.266.24.253.253 0 0 0 .239.266c.436.023.73.146.93.351.198.206.32.516.343.971a.253.253 0 0 0 .264.24.253.253 0 0 0 .24-.263c-.027-.537-.18-.984-.484-1.3-.305-.314-.743-.478-1.266-.505Zm6.636-4.3c-.497-.458-2.506-1.916-6.98-1.936 0 0-5.275-.318-7.847 2.041-1.431 1.432-1.935 3.527-1.988 6.125-.053 2.597-.122 7.465 4.57 8.785h.005L7.1 20.98s-.03.815.507.981c.65.202 1.03-.418 1.65-1.086.341-.367.811-.905 1.165-1.317 3.21.27 5.678-.347 5.958-.439.648-.21 4.315-.68 4.91-5.547.616-5.017-.297-8.19-1.947-9.621Zm.544 9.262c-.504 4.064-3.478 4.32-4.026 4.496-.233.075-2.401.614-5.127.436 0 0-2.031 2.45-2.666 3.088-.099.1-.215.14-.293.12-.11-.027-.14-.156-.138-.345l.017-3.347s-.002 0 0 0c-3.97-1.102-3.738-5.246-3.693-7.415.045-2.17.453-3.947 1.664-5.143C7.8 3.132 12.28 3.426 12.28 3.426c3.784.017 5.598 1.157 6.018 1.538 1.396 1.196 2.108 4.056 1.588 8.247z"/>
      </symbol>

      <symbol viewBox="0 0 36 36" id="fb2">
         <path d="M10.5 15V21H15V31.5H21V21H25.5L27 15H21V12C21 11.6022 21.158 11.2206 21.4393 10.9393C21.7206 10.658 22.1022 10.5 22.5 10.5H27V4.5H22.5C20.5109 4.5 18.6032 5.29018 17.1967 6.6967C15.7902 8.10322 15 10.0109 15 12V15H10.5Z" stroke-width="2" stroke-linecap="round" stroke-linejoin="round"/>
      </symbol>

      <symbol viewBox="0 0 36 36" id="instagram2">
         <path d="M24 6H12C8.68629 6 6 8.68629 6 12V24C6 27.3137 8.68629 30 12 30H24C27.3137 30 30 27.3137 30 24V12C30 8.68629 27.3137 6 24 6Z" stroke-width="2" stroke-linecap="round" stroke-linejoin="round"/>
         <path d="M18 22.5C20.4853 22.5 22.5 20.4853 22.5 18C22.5 15.5147 20.4853 13.5 18 13.5C15.5147 13.5 13.5 15.5147 13.5 18C13.5 20.4853 15.5147 22.5 18 22.5Z" stroke-width="2" stroke-linecap="round" stroke-linejoin="round"/>
         <path d="M24.75 11.25V11.251" stroke-width="2" stroke-linecap="round" stroke-linejoin="round"/>
      </symbol>

      <symbol viewBox="0 0 36 36" id="link">
         <path d="M27 6H9C7.34315 6 6 7.34315 6 9V27C6 28.6569 7.34315 30 9 30H27C28.6569 30 30 28.6569 30 27V9C30 7.34315 28.6569 6 27 6Z" stroke-width="2" stroke-linecap="round" stroke-linejoin="round"/>
         <path d="M12 16.5V24" stroke-width="2" stroke-linecap="round" stroke-linejoin="round"/>
         <path d="M12 12V12.015" stroke-width="2" stroke-linecap="round" stroke-linejoin="round"/>
         <path d="M18 24V16.5" stroke-width="2" stroke-linecap="round" stroke-linejoin="round"/>
         <path d="M24 24V19.5C24 18.7044 23.6839 17.9413 23.1213 17.3787C22.5587 16.8161 21.7956 16.5 21 16.5C20.2044 16.5 19.4413 16.8161 18.8787 17.3787C18.3161 17.9413 18 18.7044 18 19.5" stroke-width="2" stroke-linecap="round" stroke-linejoin="round"/>
      </symbol>

      <symbol viewBox="0 0 36 36" id="telegram">
         <path d="M22.5 15L16.5 21L25.5 30L31.5 6L4.5 16.5L10.5 19.5L13.5 28.5L18 22.5" stroke-width="2" stroke-linecap="round" stroke-linejoin="round"/>
      </symbol> 

      <symbol viewBox="0 0 24 24" id="plane">
         <circle cx="12" cy="12" r="10" stroke-width="1" stroke-linecap="round" stroke-linejoin="round"/>
         <path d="M12 6V16" stroke-width="1" stroke-linecap="round" stroke-linejoin="round"/>
         <path d="M12 9L17.1962 12" stroke-width="1" stroke-linecap="round" stroke-linejoin="round"/>
         <path d="M12 9L6.80385 12" stroke-width="1" stroke-linecap="round" stroke-linejoin="round"/>
         <path d="M12 16L9.5 17.5" stroke-width="1" stroke-linecap="round" stroke-linejoin="round"/>
         <path d="M12 16L14.5 17.5" stroke-width="1" stroke-linecap="round" stroke-linejoin="round"/>
      </symbol>
      
     <symbol viewBox="0 0 24 24" id="clock">
         <circle cx="12" cy="12" r="10" stroke-width="1" stroke-linecap="round" stroke-linejoin="round"/>
         <path d="M12 6V12L16 16" stroke-width="1" stroke-linecap="round" stroke-linejoin="round"/>
      </symbol>

      <symbol viewBox="0 0 24 24" id="pie">
         <circle cx="12" cy="12" r="10" stroke-width="1" stroke-linecap="round" stroke-linejoin="round"/>
         <path d="M12 2V12H22" stroke-width="1" stroke-linecap="round" stroke-linejoin="round"/>
      </symbol>

      <symbol id="setting" aria-hidden="true" viewBox="0 0 24 24">
         <g fill="none" stroke-linecap="round" stroke-linejoin="round" stroke-width="1.5">
            <path d="M10.325 4.317c.426-1.756 2.924-1.756 3.35 0a1.724 1.724 0 0 0 2.573 1.066c1.543-.94 3.31.826 2.37 2.37a1.724 1.724 0 0 0 1.065 2.572c1.756.426 1.756 2.924 0 3.35a1.724 1.724 0 0 0-1.066 2.573c.94 1.543-.826 3.31-2.37 2.37a1.724 1.724 0 0 0-2.572 1.065c-.426 1.756-2.924 1.756-3.35 0a1.724 1.724 0 0 0-2.573-1.066c-1.543.94-3.31-.826-2.37-2.37a1.724 1.724 0 0 0-1.065-2.572c-1.756-.426-1.756-2.924 0-3.35a1.724 1.724 0 0 0 1.066-2.573c-.94-1.543.826-3.31 2.37-2.37c1 .608 2.296.07 2.572-1.065z"></path>
            <path d="M9 12a3 3 0 1 0 6 0a3 3 0 0 0-6 0"></path>
         </g>
      </symbol>

        
   </svg>